<svg version="1.1" xmlns="http://www.w3.org/2000/svg" xmlns:xlink="http://www.w3.org/1999/xlink" width="213.08976" height="188.94384" viewBox="0,0,213.08976,188.94384"><g transform="translate(-131.81653,-84.70878)"><g data-paper-data="{&quot;isPaintingLayer&quot;:true}" fill-rule="nonzero" stroke="none" stroke-width="1" stroke-linecap="butt" stroke-linejoin="miter" stroke-miterlimit="10" stroke-dasharray="" stroke-dashoffset="0" style="mix-blend-mode: normal"><path d="M200.06403,271.11478h-0.91157c-18.36394,-0.16079 -36.46233,-4.40321 -52.98474,-12.42008c-6.23848,-2.93043 -9.84142,-9.58201 -8.88776,-16.40818c1.03646,-6.86773 6.36868,-12.29189 13.2177,-13.44559c10.23928,-1.36609 20.08961,-4.81758 28.9422,-10.14116c-31.31219,-24.48117 -46.67014,-64.16681 -39.99493,-103.34872c0.90724,-6.2211 5.35971,-11.34145 11.39457,-13.10375c5.87689,-1.84567 12.28813,-0.00748 16.29423,4.67177c13.44848,17.63456 33.55503,28.96509 55.60549,31.33506c0.52118,-13.42448 6.29022,-26.10819 16.06634,-35.32316c9.86057,-9.44221 23.09899,-14.53058 36.74525,-14.12355c13.64626,0.40703 26.55787,6.27539 35.83814,16.28851c2.44916,2.16526 5.9716,2.61686 8.88776,1.13946c5.54587,-2.61563 12.10324,-1.79517 16.83369,2.10624c4.73046,3.90141 6.78401,10.18274 5.27177,16.12507c-2.62816,10.82614 -7.60771,20.94086 -14.58505,29.62587c-3.2012,67.47348 -60.23792,119.72745 -127.7331,117.0222z" fill="#ff7d00"/><path d="M196.99959,273.54857h-0.94412c-19.01959,-0.16653 -37.76415,-4.56042 -54.87646,-12.86352c-6.46122,-3.03505 -10.19279,-9.92411 -9.20509,-16.994c1.07347,-7.11293 6.59607,-12.73075 13.68961,-13.92564c10.60486,-1.41486 20.80687,-4.98958 29.97553,-10.50324c9.16866,-5.51364 19.46434,-19.21773 31.55624,-41.29933c10.48154,-19.14085 13.43358,-42.36201 13.28906,-42.01848c0.53979,-13.90378 6.51481,-27.04034 16.63997,-36.58431c10.21263,-9.77933 23.9237,-15.04937 38.05717,-14.62781c14.13347,0.42156 27.50608,6.49944 37.11768,16.87006c2.53661,2.24257 6.1848,2.71029 9.20508,1.18014c5.74388,-2.70902 12.53536,-1.85926 17.43471,2.18144c4.89935,4.04071 7.02622,10.54629 5.45999,16.70078c-2.72199,11.21267 -7.87933,21.68852 -15.10578,30.68361c-3.3155,69.88251 -62.38861,124.00211 -132.29359,121.20028z" fill="#ffad00"/></g></g></svg>