<svg version="1.1" xmlns="http://www.w3.org/2000/svg" xmlns:xlink="http://www.w3.org/1999/xlink" width="205.74401" height="182.4305" viewBox="0,0,205.74401,182.4305"><g transform="translate(-137.12799,-88.78475)"><g data-paper-data="{&quot;isPaintingLayer&quot;:true}" stroke="none" stroke-width="1" stroke-linecap="butt" stroke-linejoin="miter" stroke-miterlimit="10" stroke-dasharray="" stroke-dashoffset="0" style="mix-blend-mode: normal"><path d="M200.06403,271.11478h-0.91157c-18.36394,-0.16079 -36.46233,-4.40321 -52.98474,-12.42008c-6.23848,-2.93043 -9.84142,-9.58201 -8.88776,-16.40818c1.03646,-6.86773 6.36868,-12.29189 13.2177,-13.44559c10.23928,-1.36609 20.08961,-4.81758 28.9422,-10.14116c-31.31219,-24.48117 -46.67014,-64.16681 -39.99493,-103.34872c0.90724,-6.2211 5.35971,-11.34145 11.39457,-13.10375c5.87689,-1.84567 12.28813,-0.00748 16.29423,4.67177c13.44848,17.63456 33.55503,28.96509 55.60549,31.33506c0.52118,-13.42448 6.29022,-26.10819 16.06634,-35.32316c9.86057,-9.44221 23.09899,-14.53058 36.74525,-14.12355c13.64626,0.40703 26.55787,6.27539 35.83814,16.28851c2.44916,2.16526 5.9716,2.61686 8.88776,1.13946c5.54587,-2.61563 12.10324,-1.79517 16.83369,2.10624c4.73046,3.90141 6.78401,10.18274 5.27177,16.12507c-2.62816,10.82614 -7.60771,20.94086 -14.58505,29.62587c-3.2012,67.47348 -60.23792,119.72745 -127.7331,117.0222zM319.59304,118.99731z"/></g></g></svg>